ffmpeg version 4.4.2-0ubuntu0.22.04.1 Copyright (c) 2000-2021 the FFmpeg developers
  built with gcc 11 (Ubuntu 11.2.0-19ubuntu1)
  configuration: --prefix=/usr --extra-version=0ubuntu0.22.04.1 --toolchain=hardened --libdir=/usr/lib/x86_64-linux-gnu --incdir=/usr/include/x86_64-linux-gnu --arch=amd64 --enable-gpl --disable-stripping --enable-gnutls --enable-ladspa --enable-libaom --enable-libass --enable-libbluray --enable-libbs2b --enable-libcaca --enable-libcdio --enable-libcodec2 --enable-libdav1d --enable-libflite --enable-libfontconfig --enable-libfreetype --enable-libfribidi --enable-libgme --enable-libgsm --enable-libjack --enable-libmp3lame --enable-libmysofa --enable-libopenjpeg --enable-libopenmpt --enable-libopus --enable-libpulse --enable-librabbitmq --enable-librubberband --enable-libshine --enable-libsnappy --enable-libsoxr --enable-libspeex --enable-libsrt --enable-libssh --enable-libtheora --enable-libtwolame --enable-libvidstab --enable-libvorbis --enable-libvpx --enable-libwebp --enable-libx265 --enable-libxml2 --enable-libxvid --enable-libzimg --enable-libzmq --enable-libzvbi --enable-lv2 --enable-omx --enable-openal --enable-opencl --enable-opengl --enable-sdl2 --enable-pocketsphinx --enable-librsvg --enable-libmfx --enable-libdc1394 --enable-libdrm --enable-libiec61883 --enable-chromaprint --enable-frei0r --enable-libx264 --enable-shared
  libavutil      56. 70.100 / 56. 70.100
  libavcodec     58.134.100 / 58.134.100
  libavformat    58. 76.100 / 58. 76.100
  libavdevice    58. 13.100 / 58. 13.100
  libavfilter     7.110.100 /  7.110.100
  libswscale      5.  9.100 /  5.  9.100
  libswresample   3.  9.100 /  3.  9.100
  libpostproc    55.  9.100 / 55.  9.100
Input #0, flv, from '/storage/32426326/20250611/32426326-20250611-154141-850.flv':
  Metadata:
    displayHeight   : 1440
    encoder         : obs-output module (libobs version 31.0.2)
    2.1             : false
    cdn_ip          : 192.168.252.3
    5.1             : false
    audiochannels   : 2
    3.1             : false
    fileSize        : 0
    fps             : 60
    4.0             : false
    7.1             : false
    displayWidth    : 2560
    4.1             : false
    Title           : 技术主播没有GG
    Artist          : 蓝音BuBuLine (32426326)
    Comment         : mikufans直播间 32426326 的直播录像
                    : 主播名: 蓝音BuBuLine
                    : 直播标题: 技术主播没有GG
                    : 直播分区: 单机游戏·主机游戏
                    : 录制时间: 2025-06-11T15:41:41.8609845+00:00
                    : 直播服务器:
                    : d1--ov-gotcha07b.bilivideo.com [156.59.188.243]
                    : 
                    : 使用 mikufans录播姬 录制 https://rec.danmuji.org
                    : 录播姬版本: 2.11.0
    RecordedBy      : BililiveRecorder mikufans录播姬
    RecordedFrom    : d1--ov-gotcha07b.bilivideo.com
    StreamServers   : d1--ov-gotcha07b.bilivideo.com [156.59.188.243]
    RecorderVersion : 2.11.0+Branch.tags-v2.11.0.Sha.d32ebb97483b1ae77acfc6dbcfef17bd64913ccd
    StartTime       : Wed, 11 Jun 2025 15:41:41 +0000
    RoomId          : 32426326
    ShortId         : 0
    Name            : 蓝音BuBuLine
    StreamTitle     : 技术主播没有GG
    AreaNameParent  : 单机游戏
    AreaNameChild   : 主机游戏
  Duration: 05:44:59.76, start: 0.035000, bitrate: 8192 kb/s
  Stream #0:0: Video: h264 (High), yuv420p(tv, bt709, progressive), 2560x1440 [SAR 1:1 DAR 16:9], 10240 kb/s, 60 fps, 60 tbr, 1k tbn, 120 tbc
  Stream #0:1: Audio: aac (LC), 48000 Hz, stereo, fltp, 196 kb/s
Stream mapping:
  Stream #0:0 -> #0:0 (h264 (native) -> png (native))
Press [q] to stop, [?] for help
Output #0, image2, to '/storage/32426326/20250611/32426326-20250611-154141-850.all.thumb.png':
  Metadata:
    displayHeight   : 1440
    AreaNameChild   : 主机游戏
    2.1             : false
    cdn_ip          : 192.168.252.3
    5.1             : false
    audiochannels   : 2
    3.1             : false
    fileSize        : 0
    fps             : 60
    4.0             : false
    7.1             : false
    displayWidth    : 2560
    4.1             : false
    Title           : 技术主播没有GG
    Artist          : 蓝音BuBuLine (32426326)
    Comment         : mikufans直播间 32426326 的直播录像
                    : 主播名: 蓝音BuBuLine
                    : 直播标题: 技术主播没有GG
                    : 直播分区: 单机游戏·主机游戏
                    : 录制时间: 2025-06-11T15:41:41.8609845+00:00
                    : 直播服务器:
                    : d1--ov-gotcha07b.bilivideo.com [156.59.188.243]
                    : 
                    : 使用 mikufans录播姬 录制 https://rec.danmuji.org
                    : 录播姬版本: 2.11.0
    RecordedBy      : BililiveRecorder mikufans录播姬
    RecordedFrom    : d1--ov-gotcha07b.bilivideo.com
    StreamServers   : d1--ov-gotcha07b.bilivideo.com [156.59.188.243]
    RecorderVersion : 2.11.0+Branch.tags-v2.11.0.Sha.d32ebb97483b1ae77acfc6dbcfef17bd64913ccd
    StartTime       : Wed, 11 Jun 2025 15:41:41 +0000
    RoomId          : 32426326
    ShortId         : 0
    Name            : 蓝音BuBuLine
    StreamTitle     : 技术主播没有GG
    AreaNameParent  : 单机游戏
    encoder         : Lavf58.76.100
  Stream #0:0: Video: png, rgb24(pc, gbr/bt709/bt709, progressive), 2560x1440 [SAR 1:1 DAR 16:9], q=2-31, 200 kb/s, 60 fps, 60 tbn
    Metadata:
      encoder         : Lavc58.134.100 png
frame=    1 fps=0.0 q=0.0 size=N/A time=00:00:00.00 bitrate=N/A speed=   0x    frame=    1 fps=0.0 q=-0.0 Lsize=N/A time=00:00:00.01 bitrate=N/A speed=0.0427x    
video:3554kB audio:0kB subtitle:0kB other streams:0kB global headers:0kB muxing overhead: unknown
ffmpeg version 4.4.2-0ubuntu0.22.04.1 Copyright (c) 2000-2021 the FFmpeg developers
  built with gcc 11 (Ubuntu 11.2.0-19ubuntu1)
  configuration: --prefix=/usr --extra-version=0ubuntu0.22.04.1 --toolchain=hardened --libdir=/usr/lib/x86_64-linux-gnu --incdir=/usr/include/x86_64-linux-gnu --arch=amd64 --enable-gpl --disable-stripping --enable-gnutls --enable-ladspa --enable-libaom --enable-libass --enable-libbluray --enable-libbs2b --enable-libcaca --enable-libcdio --enable-libcodec2 --enable-libdav1d --enable-libflite --enable-libfontconfig --enable-libfreetype --enable-libfribidi --enable-libgme --enable-libgsm --enable-libjack --enable-libmp3lame --enable-libmysofa --enable-libopenjpeg --enable-libopenmpt --enable-libopus --enable-libpulse --enable-librabbitmq --enable-librubberband --enable-libshine --enable-libsnappy --enable-libsoxr --enable-libspeex --enable-libsrt --enable-libssh --enable-libtheora --enable-libtwolame --enable-libvidstab --enable-libvorbis --enable-libvpx --enable-libwebp --enable-libx265 --enable-libxml2 --enable-libxvid --enable-libzimg --enable-libzmq --enable-libzvbi --enable-lv2 --enable-omx --enable-openal --enable-opencl --enable-opengl --enable-sdl2 --enable-pocketsphinx --enable-librsvg --enable-libmfx --enable-libdc1394 --enable-libdrm --enable-libiec61883 --enable-chromaprint --enable-frei0r --enable-libx264 --enable-shared
  libavutil      56. 70.100 / 56. 70.100
  libavcodec     58.134.100 / 58.134.100
  libavformat    58. 76.100 / 58. 76.100
  libavdevice    58. 13.100 / 58. 13.100
  libavfilter     7.110.100 /  7.110.100
  libswscale      5.  9.100 /  5.  9.100
  libswresample   3.  9.100 /  3.  9.100
  libpostproc    55.  9.100 / 55.  9.100
[flv @ 0x5605804b3fc0] Auto-inserting h264_mp4toannexb bitstream filter
Input #0, concat, from '/storage/32426326/20250611/32426326-20250611-154141-850.all.concat.txt':
  Duration: N/A, start: 0.000000, bitrate: 10436 kb/s
  Stream #0:0: Video: h264 (High), yuv420p(tv, bt709, progressive), 2560x1440 [SAR 1:1 DAR 16:9], 10240 kb/s, 60 fps, 60 tbr, 1k tbn, 120 tbc
  Stream #0:1: Audio: aac (LC), 48000 Hz, stereo, fltp, 196 kb/s
Output #0, flv, to '/storage/32426326/20250611/32426326-20250611-154141-850.all.flv':
  Metadata:
    encoder         : Lavf58.76.100
  Stream #0:0: Video: h264 (High) ([7][0][0][0] / 0x0007), yuv420p(tv, bt709, progressive), 2560x1440 [SAR 1:1 DAR 16:9], q=2-31, 10240 kb/s, 60 fps, 60 tbr, 1k tbn, 1k tbc
  Stream #0:1: Audio: aac (LC) ([10][0][0][0] / 0x000A), 48000 Hz, stereo, fltp, 196 kb/s
Stream mapping:
  Stream #0:0 -> #0:0 (copy)
  Stream #0:1 -> #0:1 (copy)
Press [q] to stop, [?] for help
frame=    1 fps=0.0 q=-1.0 size=       0kB time=00:00:00.00 bitrate=N/A speed=N/A    frame= 4230 fps=0.0 q=-1.0 size=   35072kB time=00:01:10.59 bitrate=4069.7kbits/s speed= 141x    frame= 6426 fps=6424 q=-1.0 size=   77056kB time=00:01:47.16 bitrate=5890.4kbits/s speed= 107x    frame= 8622 fps=5742 q=-1.0 size=  122880kB time=00:02:23.76 bitrate=7002.1kbits/s speed=95.7x    frame=10801 fps=5395 q=-1.0 size=  168192kB time=00:03:00.03 bitrate=7653.0kbits/s speed=89.9x    frame=12929 fps=5165 q=-1.0 size=  212480kB time=00:03:35.51 bitrate=8076.7kbits/s speed=86.1x    frame=15113 fps=5032 q=-1.0 size=  257792kB time=00:04:11.89 bitrate=8383.8kbits/s speed=83.9x    frame=17271 fps=4928 q=-1.0 size=  302848kB time=00:04:47.81 bitrate=8619.8kbits/s speed=82.1x    frame=19483 fps=4865 q=-1.0 size=  348928kB time=00:05:24.67 bitrate=8803.9kbits/s speed=81.1x    frame=21640 fps=4803 q=-1.0 size=  393472kB time=00:06:00.60 bitrate=8938.6kbits/s speed=  80x    frame=23691 fps=4732 q=-1.0 size=  435712kB time=00:06:34.77 bitrate=9041.6kbits/s speed=78.8x    frame=25860 fps=4695 q=-1.0 size=  480768kB time=00:07:10.89 bitrate=9140.1kbits/s speed=78.2x    frame=28023 fps=4664 q=-1.0 size=  525824kB time=00:07:46.94 bitrate=9225.0kbits/s speed=77.7x    frame=30153 fps=4632 q=-1.0 size=  570112kB time=00:08:22.40 bitrate=9296.0kbits/s speed=77.2x    frame=32264 fps=4603 q=-1.0 size=  613888kB time=00:08:57.59 bitrate=9354.7kbits/s speed=76.7x    frame=34194 fps=4552 q=-1.0 size=  654336kB time=00:09:29.75 bitrate=9408.1kbits/s speed=75.8x    frame=36095 fps=4505 q=-1.0 size=  693760kB time=00:10:01.41 bitrate=9449.9kbits/s speed=75.1x    frame=38179 fps=4485 q=-1.0 size=  737024kB time=00:10:36.12 bitrate=9491.4kbits/s speed=74.7x    frame=40123 fps=4452 q=-1.0 size=  777472kB time=00:11:08.49 bitrate=9527.5kbits/s speed=74.2x    frame=42173 fps=4433 q=-1.0 size=  819968kB time=00:11:42.65 bitrate=9559.7kbits/s speed=73.9x    frame=44252 fps=4419 q=-1.0 size=  863488kB time=00:12:17.28 bitrate=9594.2kbits/s speed=73.6x    frame=46130 fps=4387 q=-1.0 size=  902400kB time=00:12:48.53 bitrate=9618.9kbits/s speed=73.1x    frame=48202 fps=4376 q=-1.0 size=  945664kB time=00:13:23.07 bitrate=9646.5kbits/s speed=72.9x    frame=50440 fps=4380 q=-1.0 size=  989952kB time=00:14:00.34 bitrate=9650.4kbits/s speed=  73x    frame=52586 fps=4376 q=-1.0 size= 1034752kB time=00:14:36.10 bitrate=9675.4kbits/s speed=72.9x    frame=54731 fps=4373 q=-1.0 size= 1079296kB time=00:15:11.83 bitrate=9696.5kbits/s speed=72.8x    frame=56782 fps=4362 q=-1.0 size= 1122048kB time=00:15:46.00 bitrate=9716.5kbits/s speed=72.7x    frame=58755 fps=4347 q=-1.0 size= 1163008kB time=00:16:18.86 bitrate=9733.1kbits/s speed=72.4x    frame=60914 fps=4346 q=-1.0 size= 1207808kB time=00:16:54.83 bitrate=9749.7kbits/s speed=72.4x    frame=62884 fps=4332 q=-1.0 size= 1249024kB time=00:17:27.64 bitrate=9766.7kbits/s speed=72.2x    frame=64904 fps=4322 q=-1.0 size= 1291008kB time=00:18:01.29 bitrate=9780.8kbits/s speed=  72x    frame=67068 fps=4322 q=-1.0 size= 1336064kB time=00:18:37.35 bitrate=9795.5kbits/s speed=  72x    frame=68945 fps=4304 q=-1.0 size= 1375232kB time=00:19:08.60 bitrate=9808.3kbits/s speed=71.7x    frame=71057 fps=4301 q=-1.0 size= 1419008kB time=00:19:43.79 bitrate=9819.7kbits/s speed=71.7x    frame=73185 fps=4300 q=-1.0 size= 1463040kB time=00:20:19.26 bitrate=9829.9kbits/s speed=71.6x    frame=75279 fps=4297 q=-1.0 size= 1506816kB time=00:20:54.15 bitrate=9842.4kbits/s speed=71.6x    frame=77432 fps=4297 q=-1.0 size= 1551360kB time=00:21:30.02 bitrate=9851.5kbits/s speed=71.6x    frame=79451 fps=4290 q=-1.0 size= 1593856kB time=00:22:03.65 bitrate=9864.3kbits/s speed=71.5x    frame=81526 fps=4286 q=-1.0 size= 1636608kB time=00:22:38.20 bitrate=9871.2kbits/s speed=71.4x    frame=83654 fps=4285 q=-1.0 size= 1680896kB time=00:23:13.66 bitrate=9880.4kbits/s speed=71.4x    frame=85532 fps=4272 q=-1.0 size= 1719808kB time=00:23:44.94 bitrate=9887.2kbits/s speed=71.2x    frame=87556 fps=4267 q=-1.0 size= 1762048kB time=00:24:18.63 bitrate=9896.0kbits/s speed=71.1x    frame=89636 fps=4264 q=-1.0 size= 1805312kB time=00:24:53.28 bitrate=9903.8kbits/s speed=  71x    frame=91435 fps=4248 q=-1.0 size= 1842688kB time=00:25:23.26 bitrate=9909.9kbits/s speed=70.8x    frame=93527 fps=4247 q=-1.0 size= 1886208kB time=00:25:58.07 bitrate=9917.2kbits/s speed=70.7x    frame=95734 fps=4250 q=-1.0 size= 1928704kB time=00:26:34.86 bitrate=9906.8kbits/s speed=70.8x    frame=97851 fps=4250 q=-1.0 size= 1972480kB time=00:27:10.14 bitrate=9912.4kbits/s speed=70.8x    frame=99931 fps=4248 q=-1.0 size= 2016000kB time=00:27:44.79 bitrate=9920.2kbits/s speed=70.8x    frame=101901 fps=4242 q=-1.0 size= 2056960kB time=00:28:17.62 bitrate=9926.0kbits/s speed=70.7x    frame=103968 fps=4239 q=-1.0 size= 2100224kB time=00:28:52.04 bitrate=9933.3kbits/s speed=70.6x    frame=106047 fps=4238 q=-1.0 size= 2143232kB time=00:29:26.67 bitrate=9938.1kbits/s speed=70.6x    frame=107921 fps=4228 q=-1.0 size= 2182144kB time=00:29:57.89 bitrate=9942.8kbits/s speed=70.4x    frame=110042 fps=4228 q=-1.0 size= 2226176kB time=00:30:33.19 bitrate=9948.1kbits/s speed=70.4x    frame=112164 fps=4228 q=-1.0 size= 2270464kB time=00:31:08.57 bitrate=9953.9kbits/s speed=70.4x    frame=114209 fps=4226 q=-1.0 size= 2312960kB time=00:31:42.65 bitrate=9958.6kbits/s speed=70.4x    frame=116315 fps=4225 q=-1.0 size= 2356736kB time=00:32:17.73 bitrate=9963.4kbits/s speed=70.4x    frame=118372 fps=4223 q=-1.0 size= 2399488kB time=00:32:51.95 bitrate=9968.1kbits/s speed=70.4x    frame=120312 fps=4217 q=-1.0 size= 2439680kB time=00:33:24.27 bitrate=9971.6kbits/s speed=70.3x    frame=122399 fps=4216 q=-1.0 size= 2483200kB time=00:33:59.00 bitrate=9976.6kbits/s speed=70.2x    frame=124308 fps=4210 q=-1.0 size= 2522880kB time=00:34:30.82 bitrate=9980.3kbits/s speed=70.1x    frame=126307 fps=4206 q=-1.0 size= 2564352kB time=00:35:04.09 bitrate=9984.0kbits/s speed=70.1x    frame=128370 fps=4205 q=-1.0 size= 2607360kB time=00:35:38.42 bitrate=9988.4kbits/s speed=  70x    frame=130291 fps=4199 q=-1.0 size= 2647296kB time=00:36:10.44 bitrate=9991.8kbits/s speed=69.9x    frame=132457 fps=4201 q=-1.0 size= 2690816kB time=00:36:46.49 bitrate=9990.1kbits/s speed=  70x    frame=135968 fps=4244 q=-1.0 size= 2731264kB time=00:37:45.01 bitrate=9878.3kbits/s speed=70.7x    frame=139364 fps=4283 q=-1.0 size= 2771712kB time=00:38:41.60 bitrate=9780.2kbits/s speed=71.4x    frame=141770 fps=4291 q=-1.0 size= 2814208kB time=00:39:21.70 bitrate=9761.6kbits/s speed=71.5x    frame=144969 fps=4323 q=-1.0 size= 2853888kB time=00:40:14.97 bitrate=9680.9kbits/s speed=  72x    frame=147823 fps=4343 q=-1.0 size= 2895104kB time=00:41:02.54 bitrate=9631.0kbits/s speed=72.4x    frame=151589 fps=4389 q=-1.0 size= 2938624kB time=00:42:05.29 bitrate=9532.8kbits/s speed=73.1x    frame=153791 fps=4389 q=-1.0 size= 2978816kB time=00:42:41.98 bitrate=9524.8kbits/s speed=73.1x    frame=156192 fps=4395 q=-1.0 size= 3022848kB time=00:43:21.98 bitrate=9517.0kbits/s speed=73.2x    frame=158684 fps=4403 q=-1.0 size= 3067392kB time=00:44:03.50 bitrate=9505.6kbits/s speed=73.4x    frame=160817 fps=4401 q=-1.0 size= 3106304kB time=00:44:39.00 bitrate=9498.6kbits/s speed=73.3x    frame=163232 fps=4407 q=-1.0 size= 3151360kB time=00:45:19.23 bitrate=9493.8kbits/s speed=73.4x    frame=165713 fps=4414 q=-1.0 size= 3195392kB time=00:46:00.56 bitrate=9482.3kbits/s speed=73.5x    frame=168776 fps=4437 q=-1.0 size= 3239168kB time=00:46:51.59 bitrate=9437.8kbits/s speed=73.9x    frame=171357 fps=4446 q=-1.0 size= 3284224kB time=00:47:34.62 bitrate=9424.8kbits/s speed=74.1x    frame=173696 fps=4449 q=-1.0 size= 3328000kB time=00:48:13.54 bitrate=9422.0kbits/s speed=74.1x    frame=176020 fps=4452 q=-1.0 size= 3373568kB time=00:48:52.29 bitrate=9424.8kbits/s speed=74.2x    frame=178406 fps=4456 q=-1.0 size= 3419392kB time=00:49:32.05 bitrate=9425.0kbits/s speed=74.2x    frame=180479 fps=4452 q=-1.0 size= 3458816kB time=00:50:06.55 bitrate=9424.3kbits/s speed=74.2x    frame=182863 fps=4455 q=-1.0 size= 3504384kB time=00:50:46.30 bitrate=9423.8kbits/s speed=74.2x    frame=185272 fps=4460 q=-1.0 size= 3549952kB time=00:51:26.44 bitrate=9422.2kbits/s speed=74.3x    frame=187508 fps=4460 q=-1.0 size= 3590656kB time=00:52:03.68 bitrate=9416.6kbits/s speed=74.3x    frame=189856 fps=4463 q=-1.0 size= 3634688kB time=00:52:42.80 bitrate=9414.2kbits/s speed=74.3x    frame=192143 fps=4464 q=-1.0 size= 3677952kB time=00:53:20.91 bitrate=9412.9kbits/s speed=74.4x    frame=194381 fps=4464 q=-1.0 size= 3719680kB time=00:53:58.16 bitrate=9410.2kbits/s speed=74.4x    frame=196764 fps=4467 q=-1.0 size= 3765504kB time=00:54:37.88 bitrate=9410.6kbits/s speed=74.4x    frame=199194 fps=4472 q=-1.0 size= 3809792kB time=00:55:18.34 bitrate=9405.2kbits/s speed=74.5x    frame=201611 fps=4476 q=-1.0 size= 3855616kB time=00:55:58.63 bitrate=9404.2kbits/s speed=74.6x    frame=204086 fps=4481 q=-1.0 size= 3901184kB time=00:56:39.82 bitrate=9400.0kbits/s speed=74.6x    frame=206162 fps=4477 q=-1.0 size= 3940352kB time=00:57:14.43 bitrate=9398.8kbits/s speed=74.6x    frame=208572 fps=4481 q=-1.0 size= 3984384kB time=00:57:54.58 bitrate=9393.9kbits/s speed=74.6x    frame=210968 fps=4484 q=-1.0 size= 4029440kB time=00:58:34.50 bitrate=9392.3kbits/s speed=74.7x    frame=214981 fps=4521 q=-1.0 size= 4072192kB time=00:59:41.35 bitrate=9314.7kbits/s speed=75.3x    frame=217898 fps=4535 q=-1.0 size= 4116736kB time=01:00:29.95 bitrate=9290.6kbits/s speed=75.5x    frame=220694 fps=4546 q=-1.0 size= 4157696kB time=01:01:16.52 bitrate=9264.1kbits/s speed=75.7x    frame=223679 fps=4560 q=-1.0 size= 4201216kB time=01:02:06.27 bitrate=9236.1kbits/s speed=  76x    frame=227037 fps=4582 q=-1.0 size= 4244736kB time=01:03:02.23 bitrate=9193.8kbits/s speed=76.3x    frame=229563 fps=4586 q=-1.0 size= 4281088kB time=01:03:44.30 bitrate=9170.5kbits/s speed=76.4x    frame=232566 fps=4600 q=-1.0 size= 4323840kB time=01:04:34.30 bitrate=9142.5kbits/s speed=76.6x    frame=236468 fps=4632 q=-1.0 size= 4367360kB time=01:05:39.34 bitrate=9082.1kbits/s speed=77.2x    frame=239254 fps=4641 q=-1.0 size= 4405248kB time=01:06:25.73 bitrate=9054.2kbits/s speed=77.3x    frame=242244 fps=4654 q=-1.0 size= 4449536kB time=01:07:15.57 bitrate=9032.3kbits/s speed=77.5x    frame=245929 fps=4679 q=-1.0 size= 4490752kB time=01:08:16.97 bitrate=8979.4kbits/s speed=  78x    frame=248415 fps=4682 q=-1.0 size= 4530432kB time=01:08:58.37 bitrate=8968.1kbits/s speed=  78x    frame=252184 fps=4709 q=-1.0 size= 4573440kB time=01:10:01.19 bitrate=8917.8kbits/s speed=78.4x    frame=256858 fps=4752 q=-1.0 size= 4615424kB time=01:11:19.01 bitrate=8836.0kbits/s speed=79.2x    frame=259279 fps=4752 q=-1.0 size= 4660992kB time=01:11:59.38 bitrate=8839.9kbits/s speed=79.2x    frame=261631 fps=4752 q=-1.0 size= 4706048kB time=01:12:38.54 bitrate=8845.1kbits/s speed=79.2x    frame=263781 fps=4748 q=-1.0 size= 4746496kB time=01:13:14.39 bitrate=8848.4kbits/s speed=79.1x    frame=266196 fps=4748 q=-1.0 size= 4792576kB time=01:13:54.62 bitrate=8853.2kbits/s speed=79.1x    frame=268270 fps=4743 q=-1.0 size= 4834816kB time=01:14:29.17 bitrate=8862.2kbits/s speed=  79x    frame=270194 fps=4735 q=-1.0 size= 4873472kB time=01:15:01.23 bitrate=8869.4kbits/s speed=78.9x    frame=272292 fps=4731 q=-1.0 size= 4917248kB time=01:15:36.18 bitrate=8880.2kbits/s speed=78.8x    frame=274661 fps=4730 q=-1.0 size= 4958720kB time=01:16:15.65 bitrate=8877.8kbits/s speed=78.8x    frame=276797 fps=4727 q=-1.0 size= 4999936kB time=01:16:51.22 bitrate=8882.6kbits/s speed=78.7x    frame=279836 fps=4738 q=-1.0 size= 5044736kB time=01:17:41.83 bitrate=8864.8kbits/s speed=78.9x    frame=281999 fps=4734 q=-1.0 size= 5084672kB time=01:18:17.85 bitrate=8866.5kbits/s speed=78.9x    frame=284860 fps=4743 q=-1.0 size= 5127680kB time=01:19:05.51 bitrate=8851.7kbits/s speed=  79x    frame=288868 fps=4770 q=-1.0 size= 5169920kB time=01:20:12.27 bitrate=8800.8kbits/s speed=79.5x    frame=291254 fps=4770 q=-1.0 size= 5214208kB time=01:20:52.01 bitrate=8803.5kbits/s speed=79.5x    frame=295718 fps=4803 q=-1.0 size= 5256192kB time=01:22:06.42 bitrate=8740.4kbits/s speed=  80x    frame=298289 fps=4806 q=-1.0 size= 5299456kB time=01:22:49.23 bitrate=8736.4kbits/s speed=80.1x    frame=300698 fps=4806 q=-1.0 size= 5341696kB time=01:23:29.36 bitrate=8735.5kbits/s speed=80.1x    frame=303063 fps=4806 q=-1.0 size= 5384960kB time=01:24:08.79 bitrate=8737.5kbits/s speed=80.1x    frame=305539 fps=4807 q=-1.0 size= 5424896kB time=01:24:50.01 bitrate=8731.0kbits/s speed=80.1x    frame=308005 fps=4808 q=-1.0 size= 5467392kB time=01:25:31.12 bitrate=8728.9kbits/s speed=80.1x    frame=310944 fps=4816 q=-1.0 size= 5510144kB time=01:26:20.09 bitrate=8714.0kbits/s speed=80.2x    frame=313535 fps=4819 q=-1.0 size= 5549312kB time=01:27:03.27 bitrate=8703.3kbits/s speed=80.3x    frame=315626 fps=4814 q=-1.0 size= 5585664kB time=01:27:38.12 bitrate=8702.3kbits/s speed=80.2x    frame=318166 fps=4816 q=-1.0 size= 5622016kB time=01:28:20.40 bitrate=8689.1kbits/s speed=80.2x    frame=320742 fps=4818 q=-1.0 size= 5659392kB time=01:29:03.34 bitrate=8676.5kbits/s speed=80.3x    frame=324186 fps=4834 q=-1.0 size= 5700608kB time=01:30:00.69 bitrate=8646.9kbits/s speed=80.5x    frame=327206 fps=4842 q=-1.0 size= 5740288kB time=01:30:51.04 bitrate=8626.7kbits/s speed=80.7x    frame=330294 fps=4852 q=-1.0 size= 5779712kB time=01:31:42.45 bitrate=8604.8kbits/s speed=80.8x    frame=332795 fps=4853 q=-1.0 size= 5823744kB time=01:32:24.13 bitrate=8605.1kbits/s speed=80.9x    frame=335206 fps=4853 q=-1.0 size= 5866496kB time=01:33:04.30 bitrate=8606.0kbits/s speed=80.8x    frame=337449 fps=4850 q=-1.0 size= 5909248kB time=01:33:41.64 bitrate=8611.1kbits/s speed=80.8x    frame=339685 fps=4848 q=-1.0 size= 5953280kB time=01:34:18.90 bitrate=8618.1kbits/s speed=80.8x    frame=342355 fps=4851 q=-1.0 size= 5993216kB time=01:35:03.38 bitrate=8608.3kbits/s speed=80.8x    frame=347177 fps=4885 q=-1.0 size= 6034176kB time=01:36:23.72 bitrate=8546.7kbits/s speed=81.4x    frame=350175 fps=4893 q=-1.0 size= 6072832kB time=01:37:13.68 bitrate=8527.8kbits/s speed=81.5x    frame=352613 fps=4893 q=-1.0 size= 6108672kB time=01:37:54.32 bitrate=8518.8kbits/s speed=81.5x    frame=357298 fps=4923 q=-1.0 size= 6148096kB time=01:39:12.35 bitrate=8461.4kbits/s speed=  82x    frame=359048 fps=4914 q=-1.0 size= 6183168kB time=01:39:41.46 bitrate=8468.3kbits/s speed=81.9x    frame=361156 fps=4909 q=-1.0 size= 6221056kB time=01:40:16.58 bitrate=8470.4kbits/s speed=81.8x    frame=365509 fps=4934 q=-1.0 size= 6261504kB time=01:41:29.10 bitrate=8423.9kbits/s speed=82.2x    frame=367950 fps=4934 q=-1.0 size= 6299136kB time=01:42:09.70 bitrate=8418.4kbits/s speed=82.2x    frame=370799 fps=4939 q=-1.0 size= 6340352kB time=01:42:57.19 bitrate=8408.4kbits/s speed=82.3x    frame=373158 fps=4938 q=-1.0 size= 6385152kB time=01:43:36.48 bitrate=8414.3kbits/s speed=82.3x    frame=375199 fps=4932 q=-1.0 size= 6426112kB time=01:44:10.44 bitrate=8422.2kbits/s speed=82.2x    frame=377888 fps=4935 q=-1.0 size= 6469888kB time=01:44:55.25 bitrate=8419.2kbits/s speed=82.2x    frame=381359 fps=4948 q=-1.0 size= 6511360kB time=01:45:53.12 bitrate=8396.0kbits/s speed=82.4x    frame=383534 fps=4944 q=-1.0 size= 6552320kB time=01:46:29.33 bitrate=8401.0kbits/s speed=82.4x    frame=385869 fps=4942 q=-1.0 size= 6595584kB time=01:47:08.23 bitrate=8405.3kbits/s speed=82.3x    frame=388091 fps=4939 q=-1.0 size= 6636032kB time=01:47:45.26 bitrate=8408.4kbits/s speed=82.3x    frame=390442 fps=4938 q=-1.0 size= 6680064kB time=01:48:24.43 bitrate=8413.2kbits/s speed=82.3x    frame=393215 fps=4941 q=-1.0 size= 6724096kB time=01:49:10.63 bitrate=8408.9kbits/s speed=82.3x    frame=395634 fps=4941 q=-1.0 size= 6766848kB time=01:49:50.92 bitrate=8410.7kbits/s speed=82.3x    frame=398011 fps=4940 q=-1.0 size= 6810368kB time=01:50:30.54 bitrate=8414.2kbits/s speed=82.3x    frame=400636 fps=4941 q=-1.0 size= 6855424kB time=01:51:14.30 bitrate=8414.3kbits/s speed=82.3x    frame=403176 fps=4942 q=-1.0 size= 6898432kB time=01:51:56.58 bitrate=8413.8kbits/s speed=82.3x    frame=406738 fps=4956 q=-1.0 size= 6942208kB time=01:52:55.95 bitrate=8393.0kbits/s speed=82.6x    frame=409106 fps=4954 q=-1.0 size= 6984192kB time=01:53:35.38 bitrate=8394.9kbits/s speed=82.5x    frame=411284 fps=4951 q=-1.0 size= 7028224kB time=01:54:11.68 bitrate=8403.1kbits/s speed=82.5x    frame=414603 fps=4961 q=-1.0 size= 7071488kB time=01:55:07.01 bitrate=8387.1kbits/s speed=82.6x    frame=419199 fps=4986 q=-1.0 size= 7110144kB time=01:56:23.54 bitrate=8340.5kbits/s speed=83.1x    frame=424692 fps=5021 q=-1.0 size= 7151104kB time=01:57:55.09 bitrate=8280.0kbits/s speed=83.7x    frame=427859 fps=5029 q=-1.0 size= 7194368kB time=01:58:47.86 bitrate=8268.4kbits/s speed=83.8x    frame=430395 fps=5029 q=-1.0 size= 7237120kB time=01:59:30.09 bitrate=8268.6kbits/s speed=83.8x    frame=432714 fps=5027 q=-1.0 size= 7282688kB time=02:00:08.74 bitrate=8276.0kbits/s speed=83.7x    frame=434760 fps=5021 q=-1.0 size= 7325184kB time=02:00:42.80 bitrate=8285.2kbits/s speed=83.7x    frame=436653 fps=5014 q=-1.0 size= 7363584kB time=02:01:14.36 bitrate=8292.5kbits/s speed=83.5x    frame=438653 fps=5008 q=-1.0 size= 7404544kB time=02:01:47.69 bitrate=8300.6kbits/s speed=83.4x    frame=441564 fps=5013 q=-1.0 size= 7449088kB time=02:02:36.18 bitrate=8295.5kbits/s speed=83.5x    frame=445530 fps=5029 q=-1.0 size= 7491328kB time=02:03:42.24 bitrate=8268.3kbits/s speed=83.8x    frame=447597 fps=5024 q=-1.0 size= 7529984kB time=02:04:16.69 bitrate=8272.5kbits/s speed=83.7x    frame=449732 fps=5020 q=-1.0 size= 7574528kB time=02:04:52.28 bitrate=8281.9kbits/s speed=83.6x    frame=451995 fps=5017 q=-1.0 size= 7617792kB time=02:05:29.98 bitrate=8287.5kbits/s speed=83.6x    frame=454036 fps=5012 q=-1.0 size= 7657728kB time=02:06:03.99 bitrate=8293.5kbits/s speed=83.5x    frame=456927 fps=5016 q=-1.0 size= 7703040kB time=02:06:52.10 bitrate=8289.9kbits/s speed=83.6x    frame=459133 fps=5013 q=-1.0 size= 7743232kB time=02:07:28.89 bitrate=8293.0kbits/s speed=83.5x    frame=461413 fps=5011 q=-1.0 size= 7785728kB time=02:08:06.87 bitrate=8297.3kbits/s speed=83.5x    frame=463693 fps=5008 q=-1.0 size= 7829248kB time=02:08:44.84 bitrate=8302.7kbits/s speed=83.4x    frame=465768 fps=5003 q=-1.0 size= 7867392kB time=02:09:19.43 bitrate=8306.0kbits/s speed=83.4x    frame=467958 fps=5000 q=-1.0 size= 7910656kB time=02:09:55.90 bitrate=8312.6kbits/s speed=83.3x    frame=470278 fps=4998 q=-1.0 size= 7953920kB time=02:10:34.57 bitrate=8316.8kbits/s speed=83.3x    frame=472358 fps=4994 q=-1.0 size= 7994880kB time=02:11:09.22 bitrate=8322.8kbits/s speed=83.2x    frame=474775 fps=4993 q=-1.0 size= 8038144kB time=02:11:49.49 bitrate=8325.2kbits/s speed=83.2x    frame=477019 fps=4990 q=-1.0 size= 8079616kB time=02:12:26.89 bitrate=8328.8kbits/s speed=83.1x    frame=479241 fps=4987 q=-1.0 size= 8120064kB time=02:13:03.91 bitrate=8331.7kbits/s speed=83.1x    frame=481587 fps=4986 q=-1.0 size= 8163840kB time=02:13:43.00 bitrate=8335.8kbits/s speed=83.1x    frame=483606 fps=4981 q=-1.0 size= 8203776kB time=02:14:16.60 bitrate=8341.6kbits/s speed=  83x    frame=485931 fps=4979 q=-1.0 size= 8244992kB time=02:14:55.38 bitrate=8343.4kbits/s speed=  83x    frame=488298 fps=4978 q=-1.0 size= 8289280kB time=02:15:34.82 bitrate=8347.5kbits/s speed=82.9x    frame=490400 fps=4974 q=-1.0 size= 8328448kB time=02:16:09.82 bitrate=8351.1kbits/s speed=82.9x    frame=492619 fps=4971 q=-1.0 size= 8371456kB time=02:16:46.83 bitrate=8356.3kbits/s speed=82.8x    frame=494787 fps=4968 q=-1.0 size= 8412928kB time=02:17:22.92 bitrate=8361.0kbits/s speed=82.8x    frame=497059 fps=4966 q=-1.0 size= 8457216kB time=02:18:00.78 bitrate=8366.5kbits/s speed=82.7x    frame=499418 fps=4965 q=-1.0 size= 8499968kB time=02:18:40.05 bitrate=8369.1kbits/s speed=82.7x    frame=501471 fps=4960 q=-1.0 size= 8542720kB time=02:19:14.26 bitrate=8376.8kbits/s speed=82.6x    frame=503818 fps=4959 q=-1.0 size= 8586240kB time=02:19:53.39 bitrate=8380.2kbits/s speed=82.6x    frame=506051 fps=4957 q=-1.0 size= 8630272kB time=02:20:30.56 bitrate=8386.1kbits/s speed=82.6x    frame=508312 fps=4955 q=-1.0 size= 8672768kB time=02:21:08.26 bitrate=8389.8kbits/s speed=82.5x    frame=510660 fps=4953 q=-1.0 size= 8717056kB time=02:21:47.35 bitrate=8393.9kbits/s speed=82.5x    frame=512907 fps=4951 q=-1.0 size= 8759552kB time=02:22:24.81 bitrate=8397.9kbits/s speed=82.5x    frame=517219 fps=4969 q=-1.0 size= 8800256kB time=02:23:36.60 bitrate=8366.6kbits/s speed=82.8x    frame=520141 fps=4973 q=-1.0 size= 8841472kB time=02:24:25.28 bitrate=8358.6kbits/s speed=82.8x    frame=522351 fps=4970 q=-1.0 size= 8883200kB time=02:25:02.12 bitrate=8362.5kbits/s speed=82.8x    frame=524854 fps=4970 q=-1.0 size= 8924416kB time=02:25:43.78 bitrate=8361.2kbits/s speed=82.8x    frame=527964 fps=4976 q=-1.0 size= 8965888kB time=02:26:35.64 bitrate=8350.6kbits/s speed=82.9x    frame=531232 fps=4984 q=-1.0 size= 9006080kB time=02:27:30.07 bitrate=8336.4kbits/s speed=  83x    frame=533491 fps=4981 q=-1.0 size= 9049088kB time=02:28:07.69 bitrate=8340.8kbits/s speed=  83x    frame=535615 fps=4978 q=-1.0 size= 9091328kB time=02:28:43.04 bitrate=8346.5kbits/s speed=82.9x    frame=538662 fps=4983 q=-1.0 size= 9133312kB time=02:29:33.82 bitrate=8337.6kbits/s speed=  83x    frame=542012 fps=4991 q=-1.0 size= 9176320kB time=02:30:29.63 bitrate=8325.1kbits/s speed=83.1x    frame=545007 fps=4995 q=-1.0 size= 9220096kB time=02:31:19.53 bitrate=8318.8kbits/s speed=83.2x    frame=546811 fps=4989 q=-1.0 size= 9256704kB time=02:31:49.56 bitrate=8324.3kbits/s speed=83.1x    frame=548822 fps=4985 q=-1.0 size= 9297664kB time=02:32:23.08 bitrate=8330.5kbits/s speed=  83x    frame=550867 fps=4981 q=-1.0 size= 9339648kB time=02:32:57.17 bitrate=8337.0kbits/s speed=  83x    frame=553192 fps=4979 q=-1.0 size= 9384448kB time=02:33:35.87 bitrate=8341.8kbits/s speed=  83x    frame=555557 fps=4978 q=-1.0 size= 9427968kB time=02:34:15.30 bitrate=8344.8kbits/s speed=82.9x    frame=557673 fps=4975 q=-1.0 size= 9469952kB time=02:34:50.55 bitrate=8350.2kbits/s speed=82.9x    frame=559849 fps=4972 q=-1.0 size= 9513216kB time=02:35:26.81 bitrate=8355.7kbits/s speed=82.8x    frame=562112 fps=4970 q=-1.0 size= 9556992kB time=02:36:04.51 bitrate=8360.4kbits/s speed=82.8x    frame=564667 fps=4971 q=-1.0 size= 9594368kB time=02:36:47.06 bitrate=8355.1kbits/s speed=82.8x    frame=566840 fps=4968 q=-1.0 size= 9637120kB time=02:37:23.29 bitrate=8360.1kbits/s speed=82.8x    frame=568936 fps=4964 q=-1.0 size= 9679360kB time=02:37:58.18 bitrate=8365.9kbits/s speed=82.7x    frame=571072 fps=4961 q=-1.0 size= 9719808kB time=02:38:33.80 bitrate=8369.4kbits/s speed=82.7x    frame=573261 fps=4959 q=-1.0 size= 9763584kB time=02:39:10.25 bitrate=8375.0kbits/s speed=82.6x    frame=575341 fps=4955 q=-1.0 size= 9805312kB time=02:39:44.90 bitrate=8380.4kbits/s speed=82.6x    frame=577587 fps=4953 q=-1.0 size= 9848320kB time=02:40:22.36 bitrate=8384.4kbits/s speed=82.5x    frame=580410 fps=4956 q=-1.0 size= 9891072kB time=02:41:09.36 bitrate=8379.8kbits/s speed=82.6x    frame=582886 fps=4956 q=-1.0 size= 9932288kB time=02:41:50.63 bitrate=8379.0kbits/s speed=82.6x    frame=585315 fps=4956 q=-1.0 size= 9974784kB time=02:42:31.06 bitrate=8380.0kbits/s speed=82.6x    frame=587575 fps=4954 q=-1.0 size=10018048kB time=02:43:08.72 bitrate=8383.9kbits/s speed=82.5x    frame=589774 fps=4952 q=-1.0 size=10057472kB time=02:43:45.35 bitrate=8385.5kbits/s speed=82.5x    frame=592262 fps=4952 q=-1.0 size=10102016kB time=02:44:26.80 bitrate=8387.3kbits/s speed=82.5x    frame=594504 fps=4950 q=-1.0 size=10144000kB time=02:45:04.11 bitrate=8390.4kbits/s speed=82.5x    frame=597021 fps=4950 q=-1.0 size=10185216kB time=02:45:46.08 bitrate=8389.0kbits/s speed=82.5x    frame=599583 fps=4951 q=-1.0 size=10230784kB time=02:46:28.72 bitrate=8390.5kbits/s speed=82.5x    frame=602482 fps=4954 q=-1.0 size=10270464kB time=02:47:17.04 bitrate=8382.5kbits/s speed=82.5x    frame=604668 fps=4952 q=-1.0 size=10314240kB time=02:47:53.45 bitrate=8387.8kbits/s speed=82.5x    frame=607002 fps=4951 q=-1.0 size=10359296kB time=02:48:32.28 bitrate=8392.1kbits/s speed=82.5x    frame=608954 fps=4947 q=-1.0 size=10398720kB time=02:49:04.79 bitrate=8397.0kbits/s speed=82.4x    frame=612123 fps=4952 q=-1.0 size=10442240kB time=02:49:57.61 bitrate=8388.5kbits/s speed=82.5x    frame=614536 fps=4952 q=-1.0 size=10487040kB time=02:50:37.79 bitrate=8391.4kbits/s speed=82.5x    frame=616890 fps=4951 q=-1.0 size=10530816kB time=02:51:17.03 bitrate=8394.3kbits/s speed=82.5x    frame=619264 fps=4950 q=-1.0 size=10576640kB time=02:51:56.59 bitrate=8398.5kbits/s speed=82.5x    frame=621417 fps=4947 q=-1.0 size=10619136kB time=02:52:32.44 bitrate=8403.0kbits/s speed=82.4x    frame=623642 fps=4945 q=-1.0 size=10660864kB time=02:53:09.48 bitrate=8406.0kbits/s speed=82.4x    frame=626166 fps=4946 q=-1.0 size=10703616kB time=02:53:51.54 bitrate=8405.7kbits/s speed=82.4x    frame=628201 fps=4942 q=-1.0 size=10744064kB time=02:54:25.47 bitrate=8410.1kbits/s speed=82.3x    frame=630765 fps=4943 q=-1.0 size=10788096kB time=02:55:08.18 bitrate=8410.2kbits/s speed=82.3x    frame=633018 fps=4941 q=-1.0 size=10831104kB time=02:55:45.69 bitrate=8413.7kbits/s speed=82.3x    frame=635359 fps=4940 q=-1.0 size=10870272kB time=02:56:24.69 bitrate=8413.0kbits/s speed=82.3x    frame=637727 fps=4939 q=-1.0 size=10915584kB time=02:57:04.13 bitrate=8416.7kbits/s speed=82.3x    frame=640075 fps=4938 q=-1.0 size=10958592kB time=02:57:43.30 bitrate=8418.9kbits/s speed=82.3x    frame=642283 fps=4936 q=-1.0 size=11002624kB time=02:58:20.08 bitrate=8423.6kbits/s speed=82.2x    frame=644558 fps=4935 q=-1.0 size=11045632kB time=02:58:57.98 bitrate=8426.7kbits/s speed=82.2x    frame=646879 fps=4934 q=-1.0 size=11089920kB time=02:59:36.63 bitrate=8430.1kbits/s speed=82.2x    frame=648952 fps=4931 q=-1.0 size=11131392kB time=03:00:11.20 bitrate=8434.6kbits/s speed=82.1x    frame=651309 fps=4930 q=-1.0 size=11176704kB time=03:00:50.45 bitrate=8438.3kbits/s speed=82.1x    frame=653992 fps=4931 q=-1.0 size=11214080kB time=03:01:35.15 bitrate=8431.8kbits/s speed=82.2x    frame=656259 fps=4930 q=-1.0 size=11258624kB time=03:02:12.92 bitrate=8436.0kbits/s speed=82.1x    frame=658487 fps=4928 q=-1.0 size=11303168kB time=03:02:50.05 bitrate=8440.8kbits/s speed=82.1x    frame=660751 fps=4927 q=-1.0 size=11348480kB time=03:03:27.78 bitrate=8445.5kbits/s speed=82.1x    frame=662894 fps=4924 q=-1.0 size=11391744kB time=03:04:03.47 bitrate=8450.3kbits/s speed=  82x    frame=665027 fps=4922 q=-1.0 size=11433216kB time=03:04:38.98 bitrate=8453.9kbits/s speed=  82x    frame=667107 fps=4919 q=-1.0 size=11474432kB time=03:05:13.63 bitrate=8457.9kbits/s speed=81.9x    frame=669281 fps=4917 q=-1.0 size=11518464kB time=03:05:49.88 bitrate=8462.8kbits/s speed=81.9x    frame=672050 fps=4919 q=-1.0 size=11556864kB time=03:06:36.01 bitrate=8456.0kbits/s speed=81.9x    frame=674327 fps=4918 q=-1.0 size=11598592kB time=03:07:13.95 bitrate=8457.9kbits/s speed=81.9x    frame=676747 fps=4917 q=-1.0 size=11641088kB time=03:07:54.28 bitrate=8458.5kbits/s speed=81.9x    frame=678712 fps=4914 q=-1.0 size=11680512kB time=03:08:27.01 bitrate=8462.6kbits/s speed=81.9x    frame=680939 fps=4912 q=-1.0 size=11725824kB time=03:09:04.12 bitrate=8467.6kbits/s speed=81.8x    frame=683300 fps=4911 q=-1.0 size=11769088kB time=03:09:43.42 bitrate=8469.5kbits/s speed=81.8x    frame=685435 fps=4909 q=-1.0 size=11808768kB time=03:10:18.95 bitrate=8471.7kbits/s speed=81.8x    frame=687764 fps=4908 q=-1.0 size=11854080kB time=03:10:57.78 bitrate=8475.3kbits/s speed=81.8x    frame=689746 fps=4905 q=-1.0 size=11893504kB time=03:11:30.80 bitrate=8479.1kbits/s speed=81.7x    frame=691972 fps=4903 q=-1.0 size=11934464kB time=03:12:07.88 bitrate=8480.9kbits/s speed=81.7x    frame=694344 fps=4903 q=-1.0 size=11980032kB time=03:12:47.37 bitrate=8484.2kbits/s speed=81.7x    frame=697443 fps=4907 q=-1.0 size=12023552kB time=03:13:38.99 bitrate=8477.2kbits/s speed=81.8x    frame=699967 fps=4908 q=-1.0 size=12068608kB time=03:14:21.05 bitrate=8478.3kbits/s speed=81.8x    frame=702219 fps=4906 q=-1.0 size=12113408kB time=03:14:58.58 bitrate=8482.5kbits/s speed=81.7x    frame=704262 fps=4903 q=-1.0 size=12153344kB time=03:15:32.60 bitrate=8485.8kbits/s speed=81.7x    frame=706787 fps=4904 q=-1.0 size=12198656kB time=03:16:14.65 bitrate=8487.0kbits/s speed=81.7x    frame=708963 fps=4902 q=-1.0 size=12241152kB time=03:16:50.89 bitrate=8490.4kbits/s speed=81.7x    frame=710970 fps=4899 q=-1.0 size=12281344kB time=03:17:24.34 bitrate=8494.2kbits/s speed=81.6x    frame=713119 fps=4897 q=-1.0 size=12324864kB time=03:18:00.16 bitrate=8498.6kbits/s speed=81.6x    frame=715476 fps=4896 q=-1.0 size=12366080kB time=03:18:39.44 bitrate=8499.0kbits/s speed=81.6x    frame=717597 fps=4894 q=-1.0 size=12409088kB time=03:19:14.76 bitrate=8503.3kbits/s speed=81.5x    frame=719985 fps=4894 q=-1.0 size=12453376kB time=03:19:54.50 bitrate=8505.4kbits/s speed=81.5x    frame=721923 fps=4890 q=-1.0 size=12491008kB time=03:20:26.81 bitrate=8508.2kbits/s speed=81.5x    frame=724058 fps=4888 q=-1.0 size=12533504kB time=03:21:02.38 bitrate=8512.0kbits/s speed=81.4x    frame=726333 fps=4887 q=-1.0 size=12576768kB time=03:21:40.29 bitrate=8514.6kbits/s speed=81.4x    frame=728586 fps=4886 q=-1.0 size=12619008kB time=03:22:17.83 bitrate=8516.8kbits/s speed=81.4x    frame=730771 fps=4884 q=-1.0 size=12661504kB time=03:22:54.21 bitrate=8519.9kbits/s speed=81.4x    frame=732768 fps=4881 q=-1.0 size=12701952kB time=03:23:27.46 bitrate=8523.8kbits/s speed=81.3x    frame=734728 fps=4878 q=-1.0 size=12741888kB time=03:24:00.13 bitrate=8527.8kbits/s speed=81.3x    frame=736883 fps=4876 q=-1.0 size=12784640kB time=03:24:36.04 bitrate=8531.4kbits/s speed=81.2x    frame=738733 fps=4872 q=-1.0 size=12822528kB time=03:25:06.84 bitrate=8535.3kbits/s speed=81.2x    frame=741105 fps=4871 q=-1.0 size=12866048kB time=03:25:46.38 bitrate=8536.8kbits/s speed=81.2x    frame=743347 fps=4870 q=-1.0 size=12909568kB time=03:26:23.74 bitrate=8539.8kbits/s speed=81.1x    frame=745403 fps=4868 q=-1.0 size=12950272kB time=03:26:57.98 bitrate=8543.1kbits/s speed=81.1x    frame=747473 fps=4865 q=-1.0 size=12992768kB time=03:27:32.47 bitrate=8547.4kbits/s speed=81.1x    frame=750865 fps=4872 q=-1.0 size=13034496kB time=03:28:28.96 bitrate=8536.2kbits/s speed=81.2x    frame=753088 fps=4870 q=-1.0 size=13078272kB time=03:29:06.03 bitrate=8539.5kbits/s speed=81.1x    frame=756532 fps=4877 q=-1.0 size=13121536kB time=03:30:03.40 bitrate=8528.8kbits/s speed=81.2x    frame=758542 fps=4874 q=-1.0 size=13162240kB time=03:30:36.88 bitrate=8532.6kbits/s speed=81.2x    frame=760557 fps=4871 q=-1.0 size=13203200kB time=03:31:10.43 bitrate=8536.5kbits/s speed=81.2x    frame=762675 fps=4869 q=-1.0 size=13246976kB time=03:31:45.74 bitrate=8541.0kbits/s speed=81.1x    frame=764669 fps=4866 q=-1.0 size=13287424kB time=03:32:18.97 bitrate=8544.7kbits/s speed=81.1x    frame=766834 fps=4865 q=-1.0 size=13331456kB time=03:32:55.04 bitrate=8548.8kbits/s speed=  81x    frame=768942 fps=4863 q=-1.0 size=13374976kB time=03:33:30.16 bitrate=8553.2kbits/s speed=  81x    frame=771060 fps=4861 q=-1.0 size=13414144kB time=03:34:05.47 bitrate=8554.7kbits/s speed=  81x    frame=774111 fps=4864 q=-1.0 size=13458432kB time=03:34:56.28 bitrate=8549.1kbits/s speed=  81x    frame=776961 fps=4867 q=-1.0 size=13501952kB time=03:35:43.78 bitrate=8545.3kbits/s speed=81.1x    frame=780058 fps=4871 q=-1.0 size=13547264kB time=03:36:35.34 bitrate=8539.9kbits/s speed=81.2x    frame=783177 fps=4875 q=-1.0 size=13591296kB time=03:37:27.33 bitrate=8533.5kbits/s speed=81.2x    frame=786070 fps=4878 q=-1.0 size=13632256kB time=03:38:15.52 bitrate=8527.8kbits/s speed=81.3x    frame=789939 fps=4887 q=-1.0 size=13673472kB time=03:39:20.00 bitrate=8511.6kbits/s speed=81.4x    frame=793341 fps=4893 q=-1.0 size=13717504kB time=03:40:16.66 bitrate=8502.4kbits/s speed=81.5x    frame=796692 fps=4898 q=-1.0 size=13761024kB time=03:41:12.47 bitrate=8493.5kbits/s speed=81.6x    frame=799805 fps=4902 q=-1.0 size=13805824kB time=03:42:04.34 bitrate=8488.0kbits/s speed=81.7x    frame=802689 fps=4905 q=-1.0 size=13850112kB time=03:42:52.37 bitrate=8484.7kbits/s speed=81.7x    frame=805645 fps=4908 q=-1.0 size=13890560kB time=03:43:41.59 bitrate=8478.2kbits/s speed=81.8x    frame=808692 fps=4912 q=-1.0 size=13935360kB time=03:44:32.37 bitrate=8473.5kbits/s speed=81.8x    frame=811693 fps=4915 q=-1.0 size=13977856kB time=03:45:22.32 bitrate=8468.0kbits/s speed=81.9x    frame=814620 fps=4918 q=-1.0 size=14020608kB time=03:46:11.11 bitrate=8463.3kbits/s speed=81.9x    frame=817624 fps=4921 q=-1.0 size=14064640kB time=03:47:01.18 bitrate=8458.7kbits/s speed=  82x    frame=820314 fps=4922 q=-1.0 size=14104320kB time=03:47:45.96 bitrate=8454.8kbits/s speed=  82x    frame=823296 fps=4926 q=-1.0 size=14148352kB time=03:48:35.65 bitrate=8450.4kbits/s speed=82.1x    frame=826057 fps=4927 q=-1.0 size=14192384kB time=03:49:21.66 bitrate=8448.4kbits/s speed=82.1x    frame=829206 fps=4931 q=-1.0 size=14231296kB time=03:50:14.13 bitrate=8439.4kbits/s speed=82.2x    frame=832980 fps=4939 q=-1.0 size=14275072kB time=03:51:17.00 bitrate=8427.0kbits/s speed=82.3x    frame=835807 fps=4941 q=-1.0 size=14316800kB time=03:52:04.09 bitrate=8423.0kbits/s speed=82.3x    frame=837912 fps=4939 q=-1.0 size=14355200kB time=03:52:39.17 bitrate=8424.4kbits/s speed=82.3x    frame=840132 fps=4938 q=-1.0 size=14396672kB time=03:53:16.14 bitrate=8426.4kbits/s speed=82.3x    frame=842223 fps=4935 q=-1.0 size=14436096kB time=03:53:51.01 bitrate=8428.5kbits/s speed=82.2x    frame=844392 fps=4934 q=-1.0 size=14476544kB time=03:54:27.13 bitrate=8430.4kbits/s speed=82.2x    frame=846702 fps=4933 q=-1.0 size=14520320kB time=03:55:05.62 bitrate=8432.8kbits/s speed=82.2x    frame=849037 fps=4932 q=-1.0 size=14560768kB time=03:55:44.50 bitrate=8433.1kbits/s speed=82.2x    frame=851497 fps=4932 q=-1.0 size=14604032kB time=03:56:25.51 bitrate=8433.7kbits/s speed=82.2x    frame=854642 fps=4936 q=-1.0 size=14642944kB time=03:57:17.90 bitrate=8425.0kbits/s speed=82.2x    frame=856692 fps=4933 q=-1.0 size=14680832kB time=03:57:52.04 bitrate=8426.6kbits/s speed=82.2x    frame=859241 fps=4934 q=-1.0 size=14718976kB time=03:58:34.50 bitrate=8423.5kbits/s speed=82.2x    frame=861211 fps=4931 q=-1.0 size=14756608kB time=03:59:07.32 bitrate=8425.7kbits/s speed=82.1x    frame=863140 fps=4928 q=-1.0 size=14794496kB time=03:59:39.43 bitrate=8428.5kbits/s speed=82.1x    frame=865504 fps=4927 q=-1.0 size=14832640kB time=04:00:18.83 bitrate=8427.1kbits/s speed=82.1x    frame=868233 fps=4929 q=-1.0 size=14872576kB time=04:01:04.28 bitrate=8423.2kbits/s speed=82.1x    frame=871355 fps=4932 q=-1.0 size=14914304kB time=04:01:56.28 bitrate=8416.6kbits/s speed=82.2x    frame=874797 fps=4938 q=-1.0 size=14959360kB time=04:02:53.62 bitrate=8408.8kbits/s speed=82.3x    frame=876939 fps=4936 q=-1.0 size=15001344kB time=04:03:29.33 bitrate=8411.8kbits/s speed=82.2x    frame=879352 fps=4936 q=-1.0 size=15046144kB time=04:04:09.53 bitrate=8413.8kbits/s speed=82.2x    frame=881568 fps=4934 q=-1.0 size=15089408kB time=04:04:46.44 bitrate=8416.8kbits/s speed=82.2x    frame=884058 fps=4935 q=-1.0 size=15133952kB time=04:05:27.91 bitrate=8417.8kbits/s speed=82.2x    frame=887588 fps=4940 q=-1.0 size=15177216kB time=04:06:26.73 bitrate=8408.3kbits/s speed=82.3x    frame=890753 fps=4944 q=-1.0 size=15222272kB time=04:07:19.49 bitrate=8403.3kbits/s speed=82.4x    frame=893105 fps=4944 q=-1.0 size=15267072kB time=04:07:58.67 bitrate=8405.8kbits/s speed=82.4x    frame=895617 fps=4944 q=-1.0 size=15312896kB time=04:08:40.53 bitrate=8407.4kbits/s speed=82.4x    frame=898729 fps=4947 q=-1.0 size=15352576kB time=04:09:32.36 bitrate=8400.0kbits/s speed=82.4x    frame=901262 fps=4948 q=-1.0 size=15397120kB time=04:10:14.57 bitrate=8400.7kbits/s speed=82.4x    frame=903978 fps=4949 q=-1.0 size=15441664kB time=04:10:59.82 bitrate=8399.7kbits/s speed=82.4x    frame=908750 fps=4961 q=-1.0 size=15483136kB time=04:12:19.29 bitrate=8378.1kbits/s speed=82.7x    frame=912090 fps=4966 q=-1.0 size=15527168kB time=04:13:14.93 bitrate=8371.1kbits/s speed=82.7x    frame=914593 fps=4966 q=-1.0 size=15571200kB time=04:13:56.65 bitrate=8371.9kbits/s speed=82.7x    frame=917607 fps=4969 q=-1.0 size=15610624kB time=04:14:46.85 bitrate=8365.5kbits/s speed=82.8x    frame=920530 fps=4971 q=-1.0 size=15649280kB time=04:15:35.55 bitrate=8359.6kbits/s speed=82.8x    frame=923083 fps=4972 q=-1.0 size=15693312kB time=04:16:18.07 bitrate=8359.9kbits/s speed=82.8x    frame=925170 fps=4970 q=-1.0 size=15734528kB time=04:16:52.80 bitrate=8363.0kbits/s speed=82.8x    frame=928376 fps=4973 q=-1.0 size=15771648kB time=04:17:46.24 bitrate=8353.8kbits/s speed=82.9x    frame=931153 fps=4975 q=-1.0 size=15814912kB time=04:18:32.47 bitrate=8351.7kbits/s speed=82.9x    frame=933297 fps=4973 q=-1.0 size=15855104kB time=04:19:08.20 bitrate=8353.7kbits/s speed=82.9x    frame=935521 fps=4972 q=-1.0 size=15899136kB time=04:19:45.29 bitrate=8357.0kbits/s speed=82.8x    frame=937654 fps=4970 q=-1.0 size=15942400kB time=04:20:20.79 bitrate=8360.7kbits/s speed=82.8x    frame=939691 fps=4968 q=-1.0 size=15981312kB time=04:20:54.75 bitrate=8362.9kbits/s speed=82.8x    frame=941796 fps=4965 q=-1.0 size=16024064kB time=04:21:29.78 bitrate=8366.5kbits/s speed=82.7x    frame=944950 fps=4969 q=-1.0 size=16065280kB time=04:22:22.30 bitrate=8360.1kbits/s speed=82.8x    frame=947200 fps=4968 q=-1.0 size=16103424kB time=04:22:59.82 bitrate=8360.0kbits/s speed=82.8x    frame=950345 fps=4971 q=-1.0 size=16147456kB time=04:23:52.22 bitrate=8355.1kbits/s speed=82.8x    frame=952468 fps=4969 q=-1.0 size=16187904kB time=04:24:27.60 bitrate=8357.4kbits/s speed=82.8x    frame=956616 fps=4978 q=-1.0 size=16227328kB time=04:25:36.66 bitrate=8341.4kbits/s speed=82.9x    frame=958935 fps=4977 q=-1.0 size=16270080kB time=04:26:15.31 bitrate=8343.2kbits/s speed=82.9x    frame=961012 fps=4975 q=-1.0 size=16309248kB time=04:26:49.93 bitrate=8345.2kbits/s speed=82.9x    frame=963171 fps=4973 q=-1.0 size=16349952kB time=04:27:25.87 bitrate=8347.2kbits/s speed=82.9x    frame=965272 fps=4971 q=-1.0 size=16393472kB time=04:28:00.91 bitrate=8351.2kbits/s speed=82.8x    frame=967094 fps=4968 q=-1.0 size=16430336kB time=04:28:31.23 bitrate=8354.2kbits/s speed=82.8x    frame=970609 fps=4973 q=-1.0 size=16473344kB time=04:29:29.80 bitrate=8345.8kbits/s speed=82.8x    frame=972991 fps=4972 q=-1.0 size=16513792kB time=04:30:09.49 bitrate=8345.8kbits/s speed=82.8x    frame=975389 fps=4972 q=-1.0 size=16555520kB time=04:30:49.44 bitrate=8346.3kbits/s speed=82.8x    frame=977914 fps=4972 q=-1.0 size=16598784kB time=04:31:31.50 bitrate=8346.5kbits/s speed=82.8x    frame=980234 fps=4971 q=-1.0 size=16639488kB time=04:32:10.16 bitrate=8347.2kbits/s speed=82.8x    frame=983775 fps=4977 q=-1.0 size=16679424kB time=04:33:09.15 bitrate=8337.1kbits/s speed=82.9x    frame=987235 fps=4981 q=-1.0 size=16720640kB time=04:34:06.76 bitrate=8328.4kbits/s speed=  83x    frame=989494 fps=4980 q=-1.0 size=16757248kB time=04:34:44.42 bitrate=8327.6kbits/s speed=  83x    frame=992086 fps=4981 q=-1.0 size=16799744kB time=04:35:27.60 bitrate=8326.9kbits/s speed=  83x    frame=994519 fps=4981 q=-1.0 size=16840448kB time=04:36:08.15 bitrate=8326.6kbits/s speed=  83x    frame=996692 fps=4979 q=-1.0 size=16877312kB time=04:36:44.36 bitrate=8326.7kbits/s speed=82.9x    frame=999373 fps=4980 q=-1.0 size=16918016kB time=04:37:28.97 bitrate=8324.4kbits/s speed=  83x    frame=1002417 fps=4983 q=-1.0 size=16958208kB time=04:38:19.70 bitrate=8318.8kbits/s speed=  83x    frame=1004910 fps=4983 q=-1.0 size=16996864kB time=04:39:01.25 bitrate=8317.1kbits/s speed=  83x    frame=1006981 fps=4981 q=-1.0 size=17039360kB time=04:39:35.76 bitrate=8320.7kbits/s speed=  83x    frame=1009443 fps=4980 q=-1.0 size=17077760kB time=04:40:16.77 bitrate=8319.1kbits/s speed=  83x    frame=1011940 fps=4980 q=-1.0 size=17120768kB time=04:40:58.37 bitrate=8319.5kbits/s speed=  83x    frame=1015247 fps=4984 q=-1.0 size=17162240kB time=04:41:53.48 bitrate=8312.5kbits/s speed=  83x    frame=1018734 fps=4989 q=-1.0 size=17199616kB time=04:42:51.56 bitrate=8302.1kbits/s speed=83.1x    frame=1022411 fps=4995 q=-1.0 size=17240320kB time=04:43:52.84 bitrate=8291.8kbits/s speed=83.2x    frame=1024897 fps=4995 q=-1.0 size=17281280kB time=04:44:34.25 bitrate=8291.3kbits/s speed=83.2x    frame=1027945 fps=4998 q=-1.0 size=17319680kB time=04:45:25.01 bitrate=8285.1kbits/s speed=83.3x    frame=1030144 fps=4996 q=-1.0 size=17361152kB time=04:46:01.65 bitrate=8287.2kbits/s speed=83.2x    frame=1033523 fps=5000 q=-1.0 size=17400832kB time=04:46:57.91 bitrate=8279.0kbits/s speed=83.3x    frame=1035391 fps=4997 q=-1.0 size=17438464kB time=04:47:29.01 bitrate=8282.0kbits/s speed=83.3x    frame=1037647 fps=4996 q=-1.0 size=17481728kB time=04:48:06.62 bitrate=8284.5kbits/s speed=83.2x    frame=1039693 fps=4994 q=-1.0 size=17520640kB time=04:48:40.68 bitrate=8286.6kbits/s speed=83.2x    frame=1041718 fps=4992 q=-1.0 size=17562880kB time=04:49:14.42 bitrate=8290.4kbits/s speed=83.2x    frame=1046219 fps=5001 q=-1.0 size=17605888kB time=04:50:29.45 bitrate=8274.9kbits/s speed=83.3x    frame=1048731 fps=5001 q=-1.0 size=17644032kB time=04:51:11.26 bitrate=8273.0kbits/s speed=83.3x    frame=1051533 fps=5003 q=-1.0 size=17689856kB time=04:51:57.96 bitrate=8272.4kbits/s speed=83.3x    frame=1054171 fps=5003 q=-1.0 size=17733888kB time=04:52:41.93 bitrate=8272.2kbits/s speed=83.4x    frame=1057340 fps=5007 q=-1.0 size=17777664kB time=04:53:34.73 bitrate=8267.8kbits/s speed=83.4x    frame=1060031 fps=5007 q=-1.0 size=17823488kB time=04:54:19.52 bitrate=8268.1kbits/s speed=83.4x    frame=1063808 fps=5013 q=-1.0 size=17868032kB time=04:55:22.44 bitrate=8259.3kbits/s speed=83.5x    frame=1066734 fps=5015 q=-1.0 size=17913344kB time=04:56:11.20 bitrate=8257.5kbits/s speed=83.6x    frame=1069635 fps=5017 q=-1.0 size=17959424kB time=04:56:59.52 bitrate=8256.3kbits/s speed=83.6x    frame=1072415 fps=5018 q=-1.0 size=18003456kB time=04:57:45.84 bitrate=8255.1kbits/s speed=83.6x    frame=1075704 fps=5022 q=-1.0 size=18047744kB time=04:58:40.65 bitrate=8250.1kbits/s speed=83.7x    frame=1078093 fps=5022 q=-1.0 size=18091264kB time=04:59:20.44 bitrate=8251.7kbits/s speed=83.7x    frame=1080129 fps=5019 q=-1.0 size=18130688kB time=04:59:54.39 bitrate=8254.1kbits/s speed=83.6x    frame=1082720 fps=5020 q=-1.0 size=18176768kB time=05:00:37.53 bitrate=8255.2kbits/s speed=83.6x    frame=1085286 fps=5020 q=-1.0 size=18219776kB time=05:01:20.30 bitrate=8255.2kbits/s speed=83.6x    frame=1087748 fps=5020 q=-1.0 size=18260736kB time=05:02:01.29 bitrate=8255.0kbits/s speed=83.6x    frame=1090364 fps=5020 q=-1.0 size=18306560kB time=05:02:44.89 bitrate=8255.9kbits/s speed=83.6x    frame=1092518 fps=5019 q=-1.0 size=18349056kB time=05:03:20.79 bitrate=8258.7kbits/s speed=83.6x    frame=1096412 fps=5025 q=-1.0 size=18393600kB time=05:04:25.67 bitrate=8249.4kbits/s speed=83.7x    frame=1100615 fps=5033 q=-1.0 size=18431488kB time=05:05:35.69 bitrate=8234.8kbits/s speed=83.8x    frame=1105334 fps=5043 q=-1.0 size=18471680kB time=05:06:54.28 bitrate=8217.5kbits/s speed=  84x    frame=1109603 fps=5051 q=-1.0 size=18513664kB time=05:08:05.39 bitrate=8204.5kbits/s speed=84.1x    frame=1112553 fps=5053 q=-1.0 size=18552832kB time=05:08:54.55 bitrate=8200.1kbits/s speed=84.2x    frame=1114792 fps=5051 q=-1.0 size=18595584kB time=05:09:31.84 bitrate=8202.5kbits/s speed=84.2x    frame=1117783 fps=5053 q=-1.0 size=18639104kB time=05:10:21.67 bitrate=8199.7kbits/s speed=84.2x    frame=1119985 fps=5052 q=-1.0 size=18680832kB time=05:10:58.34 bitrate=8201.9kbits/s speed=84.2x    frame=1122515 fps=5052 q=-1.0 size=18727424kB time=05:11:40.53 bitrate=8203.8kbits/s speed=84.2x    frame=1125066 fps=5052 q=-1.0 size=18771456kB time=05:12:23.02 bitrate=8204.4kbits/s speed=84.2x    frame=1127586 fps=5052 q=-1.0 size=18816768kB time=05:13:04.98 bitrate=8205.9kbits/s speed=84.2x    frame=1130059 fps=5052 q=-1.0 size=18862848kB time=05:13:46.20 bitrate=8207.9kbits/s speed=84.2x    frame=1132649 fps=5052 q=-1.0 size=18902528kB time=05:14:29.32 bitrate=8206.4kbits/s speed=84.2x    frame=1136367 fps=5057 q=-1.0 size=18945024kB time=05:15:31.25 bitrate=8198.0kbits/s speed=84.3x    frame=1139750 fps=5061 q=-1.0 size=18988288kB time=05:16:27.61 bitrate=8192.3kbits/s speed=84.3x    frame=1143205 fps=5065 q=-1.0 size=19031040kB time=05:17:25.17 bitrate=8185.9kbits/s speed=84.4x    frame=1146198 fps=5067 q=-1.0 size=19076352kB time=05:18:15.03 bitrate=8184.0kbits/s speed=84.4x    frame=1148316 fps=5065 q=-1.0 size=19119104kB time=05:18:50.32 bitrate=8187.2kbits/s speed=84.4x    frame=1150501 fps=5064 q=-1.0 size=19161344kB time=05:19:26.73 bitrate=8189.7kbits/s speed=84.4x    frame=1152769 fps=5063 q=-1.0 size=19206144kB time=05:20:04.49 bitrate=8192.7kbits/s speed=84.3x    frame=1154862 fps=5061 q=-1.0 size=19247872kB time=05:20:39.36 bitrate=8195.6kbits/s speed=84.3x    frame=1157006 fps=5059 q=-1.0 size=19291392kB time=05:21:15.09 bitrate=8198.9kbits/s speed=84.3x    frame=1159235 fps=5058 q=-1.0 size=19336448kB time=05:21:52.18 bitrate=8202.3kbits/s speed=84.3x    frame=1162033 fps=5059 q=-1.0 size=19375104kB time=05:22:38.80 bitrate=8198.9kbits/s speed=84.3x    frame=1166413 fps=5067 q=-1.0 size=19416064kB time=05:23:51.80 bitrate=8185.4kbits/s speed=84.4x    frame=1169793 fps=5070 q=-1.0 size=19457792kB time=05:24:48.12 bitrate=8179.3kbits/s speed=84.5x    frame=1173653 fps=5076 q=-1.0 size=19498752kB time=05:25:52.41 bitrate=8169.5kbits/s speed=84.6x    frame=1177362 fps=5081 q=-1.0 size=19542784kB time=05:26:54.12 bitrate=8162.2kbits/s speed=84.6x    frame=1179882 fps=5081 q=-1.0 size=19586048kB time=05:27:36.13 bitrate=8162.8kbits/s speed=84.6x    frame=1182043 fps=5079 q=-1.0 size=19626752kB time=05:28:12.13 bitrate=8164.8kbits/s speed=84.6x    frame=1184509 fps=5079 q=-1.0 size=19671296kB time=05:28:53.22 bitrate=8166.3kbits/s speed=84.6x    frame=1188442 fps=5085 q=-1.0 size=19708416kB time=05:29:58.71 bitrate=8154.6kbits/s speed=84.7x    frame=1191350 fps=5087 q=-1.0 size=19750656kB time=05:30:47.16 bitrate=8152.2kbits/s speed=84.7x    frame=1194290 fps=5088 q=-1.0 size=19792384kB time=05:31:36.18 bitrate=8149.3kbits/s speed=84.8x    frame=1197230 fps=5090 q=-1.0 size=19833344kB time=05:32:25.16 bitrate=8146.1kbits/s speed=84.8x    frame=1201439 fps=5097 q=-1.0 size=19873792kB time=05:33:35.23 bitrate=8134.1kbits/s speed=84.9x    frame=1203515 fps=5095 q=-1.0 size=19916800kB time=05:34:09.84 bitrate=8137.6kbits/s speed=84.9x    frame=1205409 fps=5092 q=-1.0 size=19956224kB time=05:34:41.40 bitrate=8140.9kbits/s speed=84.8x    frame=1207571 fps=5091 q=-1.0 size=20000768kB time=05:35:17.41 bitrate=8144.5kbits/s speed=84.8x    frame=1209613 fps=5089 q=-1.0 size=20043264kB time=05:35:51.42 bitrate=8148.0kbits/s speed=84.8x    frame=1211700 fps=5087 q=-1.0 size=20086784kB time=05:36:26.16 bitrate=8151.7kbits/s speed=84.7x    frame=1213788 fps=5085 q=-1.0 size=20130048kB time=05:37:00.96 bitrate=8155.2kbits/s speed=84.7x    frame=1215785 fps=5082 q=-1.0 size=20171520kB time=05:37:34.21 bitrate=8158.6kbits/s speed=84.7x    frame=1217842 fps=5080 q=-1.0 size=20214528kB time=05:38:08.46 bitrate=8162.1kbits/s speed=84.6x    frame=1219978 fps=5079 q=-1.0 size=20258816kB time=05:38:44.05 bitrate=8165.7kbits/s speed=84.6x    frame=1221852 fps=5076 q=-1.0 size=20297728kB time=05:39:15.28 bitrate=8168.8kbits/s speed=84.6x    frame=1223950 fps=5074 q=-1.0 size=20341504kB time=05:39:50.22 bitrate=8172.4kbits/s speed=84.5x    frame=1225971 fps=5072 q=-1.0 size=20383488kB time=05:40:23.89 bitrate=8175.8kbits/s speed=84.5x    frame=1228022 fps=5070 q=-1.0 size=20425984kB time=05:40:58.03 bitrate=8179.2kbits/s speed=84.5x    frame=1230120 fps=5068 q=-1.0 size=20469760kB time=05:41:32.96 bitrate=8182.7kbits/s speed=84.4x    frame=1232125 fps=5066 q=-1.0 size=20511744kB time=05:42:06.39 bitrate=8186.2kbits/s speed=84.4x    frame=1234219 fps=5064 q=-1.0 size=20555008kB time=05:42:41.27 bitrate=8189.5kbits/s speed=84.4x    frame=1236369 fps=5063 q=-1.0 size=20599552kB time=05:43:17.05 bitrate=8193.0kbits/s speed=84.3x    frame=1238336 fps=5060 q=-1.0 size=20640512kB time=05:43:49.85 bitrate=8196.2kbits/s speed=84.3x    frame=1240568 fps=5059 q=-1.0 size=20685056kB time=05:44:27.02 bitrate=8199.1kbits/s speed=84.3x    frame=1242533 fps=5063 q=-1.0 Lsize=20701929kB time=05:44:59.72 bitrate=8192.9kbits/s speed=84.3x    
video:20159253kB audio:501073kB subtitle:0kB other streams:0kB global headers:0kB muxing overhead: 0.201364%
